<svg width="49" height="49" viewBox="0 0 49 49" fill="none" xmlns="http://www.w3.org/2000/svg">
<path d="M24.0808 38.4493C19.0808 38.4493 14.6608 35.8893 12.0808 32.0493C12.1408 28.0493 20.0808 25.8493 24.0808 25.8493C28.0808 25.8493 36.0208 28.0493 36.0808 32.0493C33.5008 35.8893 29.0808 38.4493 24.0808 38.4493ZM24.0808 10.0493C25.6721 10.0493 27.1982 10.6815 28.3235 11.8067C29.4487 12.9319 30.0808 14.458 30.0808 16.0493C30.0808 17.6406 29.4487 19.1667 28.3235 20.292C27.1982 21.4172 25.6721 22.0493 24.0808 22.0493C22.4895 22.0493 20.9634 21.4172 19.8382 20.292C18.713 19.1667 18.0808 17.6406 18.0808 16.0493C18.0808 14.458 18.713 12.9319 19.8382 11.8067C20.9634 10.6815 22.4895 10.0493 24.0808 10.0493ZM24.0808 4.04932C21.4544 4.04932 18.8537 4.56663 16.4271 5.57173C14.0006 6.57682 11.7958 8.05001 9.93867 9.90718C6.18795 13.6579 4.08081 18.745 4.08081 24.0493C4.08081 29.3537 6.18795 34.4407 9.93867 38.1915C11.7958 40.0486 14.0006 41.5218 16.4271 42.5269C18.8537 43.532 21.4544 44.0493 24.0808 44.0493C29.3851 44.0493 34.4722 41.9422 38.2229 38.1915C41.9737 34.4407 44.0808 29.3537 44.0808 24.0493C44.0808 12.9893 35.0808 4.04932 24.0808 4.04932Z" fill="#00A795"/>
</svg>
