<svg width="20" height="20" viewBox="0 0 20 20" fill="none" xmlns="http://www.w3.org/2000/svg">
<path fill-rule="evenodd" clip-rule="evenodd" d="M7.39795 5.31547C7.39795 6.87102 6.11555 8.13184 4.53223 8.13184C2.94983 8.13184 1.6665 6.87102 1.6665 5.31547C1.6665 3.76082 2.94983 2.5 4.53223 2.5C6.11555 2.5 7.39795 3.76082 7.39795 5.31547ZM17.0776 4.08194C17.7702 4.08194 18.3332 4.63502 18.3332 5.31547C18.3332 5.99682 17.7702 6.54991 17.0776 6.54991H11.598C10.9045 6.54991 10.3415 5.99682 10.3415 5.31547C10.3415 4.63502 10.9045 4.08194 11.598 4.08194H17.0776ZM2.92298 13.2983H8.40258C9.09609 13.2983 9.65905 13.8514 9.65905 14.5327C9.65905 15.2132 9.09609 15.7672 8.40258 15.7672H2.92298C2.22946 15.7672 1.6665 15.2132 1.6665 14.5327C1.6665 13.8514 2.22946 13.2983 2.92298 13.2983ZM15.4674 17.3148C17.0508 17.3148 18.3332 16.054 18.3332 14.4993C18.3332 12.9438 17.0508 11.683 15.4674 11.683C13.885 11.683 12.6017 12.9438 12.6017 14.4993C12.6017 16.054 13.885 17.3148 15.4674 17.3148Z" fill="white"/>
</svg>
